<?xml version="1.0" encoding="UTF-8"?>
<svg xmlns="http://www.w3.org/2000/svg" xmlns:xlink="http://www.w3.org/1999/xlink"
     width="324.793388" height="572.727273" viewBox="-38.429752 -534.297521 324.793388 572.727273">
<defs>
<style type="text/css">
.l0d1 {fill:none;stroke:black;stroke-dasharray:8,8;}
.l1d0 {stroke: #A1CAF1; fill: #A1CAF1; fill-opacity: 0.5;}
</style>
<g id="Device">
<use transform="translate(-19.834711 0.000000)" xlink:href="#MZI"/>
<use transform="translate(-99.173554 -74.380165) rotate(90.000000)" xlink:href="#Grating"/>
<use transform="translate(-99.173554 74.380165) rotate(90.000000)" xlink:href="#Grating"/>
<use transform="translate(99.173554 74.380165) rotate(-90.000000)" xlink:href="#Grating"/>
<use transform="translate(99.173554 -74.380165) rotate(-90.000000)" xlink:href="#Grating"/>
<use transform="translate(0.000000 0.000000)" xlink:href="#Waveguide"/>
<use transform="translate(0.000000 0.000000) scale(1 -1)" xlink:href="#Waveguide"/>
<use transform="translate(0.000000 0.000000) rotate(180.000000)" xlink:href="#Waveguide"/>
<use transform="translate(0.000000 0.000000) rotate(180.000000) scale(1 -1)" xlink:href="#Waveguide"/>
</g>
<g id="Alignment Mark">
<polygon id="0x5560668398c0" class="l1d0" points="12.396694,0.743802 0.743802,0.743802 0.743802,12.396694 -0.743802,12.396694 -0.743802,0.743802 -12.396694,0.743802 -12.396694,-0.743802 -0.743802,-0.743802 -0.743802,-12.396694 0.743802,-12.396694 0.743802,-0.743802 12.396694,-0.743802"/>
</g>
<g id="Directinal Coupler">
<polygon id="0x5560667bac00" class="l1d0" points="0.000000,-0.371901 0.000000,-0.619835 0.012397,-0.619835 0.024793,-0.619835 0.037190,-0.619835 0.056329,-0.619835 0.209962,-0.603075 0.364492,-0.558682 0.644795,-0.435859 0.909946,-0.319674 1.028143,-0.285719 1.147238,-0.272727 1.190083,-0.272727 1.239669,-0.272727 1.289256,-0.272727 1.332101,-0.272727 1.451195,-0.285719 1.569393,-0.319674 1.834544,-0.435859 2.114847,-0.558682 2.269377,-0.603075 2.423010,-0.619835 2.442149,-0.619835 2.454545,-0.619835 2.466942,-0.619835 2.479339,-0.619835 2.479339,-0.371901 2.466942,-0.371901 2.454545,-0.371901 2.442149,-0.371901 2.436494,-0.371901 2.317400,-0.358909 2.199202,-0.324954 1.934051,-0.208769 1.653748,-0.085946 1.499218,-0.041553 1.345585,-0.024793 1.289256,-0.024793 1.239669,-0.024793 1.190083,-0.024793 1.133754,-0.024793 0.980121,-0.041553 0.825591,-0.085946 0.545288,-0.208769 0.280137,-0.324954 0.161939,-0.358909 0.042845,-0.371901 0.037190,-0.371901 0.024793,-0.371901 0.012397,-0.371901"/>
<polygon id="0x5560667bac00" class="l1d0" points="0.000000,0.619835 0.000000,0.371901 0.012397,0.371901 0.024793,0.371901 0.037190,0.371901 0.042845,0.371901 0.161939,0.358909 0.280137,0.324954 0.545288,0.208769 0.825591,0.085946 0.980121,0.041553 1.133754,0.024793 1.190083,0.024793 1.239669,0.024793 1.289256,0.024793 1.345585,0.024793 1.499218,0.041553 1.653748,0.085946 1.934051,0.208769 2.199202,0.324954 2.317400,0.358909 2.436494,0.371901 2.442149,0.371901 2.454545,0.371901 2.466942,0.371901 2.479339,0.371901 2.479339,0.619835 2.466942,0.619835 2.454545,0.619835 2.442149,0.619835 2.423010,0.619835 2.269377,0.603075 2.114847,0.558682 1.834544,0.435859 1.569393,0.319674 1.451195,0.285719 1.332101,0.272727 1.289256,0.272727 1.239669,0.272727 1.190083,0.272727 1.147238,0.272727 1.028143,0.285719 0.909946,0.319674 0.644795,0.435859 0.364492,0.558682 0.209962,0.603075 0.056329,0.619835 0.037190,0.619835 0.024793,0.619835 0.012397,0.619835"/>
</g>
<g id="Waveguide">
<polygon id="0x5560668561d0" class="l1d0" points="-109.090909,-69.421488 -109.090909,-79.338843 -99.173554,-79.338843 -99.173554,-79.338843 -99.173554,-79.338843 -99.173554,-79.338843 -49.586777,-74.504132 -49.586777,-74.504132 -49.586777,-74.504132 -49.586777,-74.504132 -42.148760,-74.504132 -41.609256,-74.484793 -41.072727,-74.427273 -40.541157,-74.331074 -40.018512,-74.197686 -39.506281,-74.027107 -39.007438,-73.820826 -38.524463,-73.579339 -38.060331,-73.303636 -37.617025,-72.995702 -37.196529,-72.657025 -36.801818,-72.289091 -36.433884,-71.894380 -36.095207,-71.473884 -35.787273,-71.030579 -35.511570,-70.566446 -35.270083,-70.083471 -35.063802,-69.584628 -34.893223,-69.072397 -34.759835,-68.549752 -34.663636,-68.018182 -34.606116,-67.481653 -34.586777,-66.942149 -34.586777,-7.933884 -34.566446,-7.387438 -34.504959,-6.843967 -34.403306,-6.306446 -34.261983,-5.777851 -34.080992,-5.261653 -33.862314,-4.760331 -33.606942,-4.276860 -33.315868,-3.813719 -32.991074,-3.373884 -32.634545,-2.958843 -32.247769,-2.572066 -31.832727,-2.215537 -31.392893,-1.890744 -30.929752,-1.599669 -30.446281,-1.344298 -29.944959,-1.125620 -29.428760,-0.944628 -28.900165,-0.803306 -28.362645,-0.701653 -27.819174,-0.640165 -27.272727,-0.619835 -19.834711,-0.619835 -19.834711,-0.371901 -27.272727,-0.371901 -27.812231,-0.391240 -28.348760,-0.448760 -28.880331,-0.544959 -29.402975,-0.678347 -29.915207,-0.848926 -30.414050,-1.055207 -30.897025,-1.296694 -31.361157,-1.572397 -31.804463,-1.880331 -32.224959,-2.219008 -32.619669,-2.586942 -32.987603,-2.981653 -33.326281,-3.402149 -33.634215,-3.845455 -33.909917,-4.309587 -34.151405,-4.792562 -34.357686,-5.291405 -34.528264,-5.803636 -34.661653,-6.326281 -34.757851,-6.857851 -34.815372,-7.394380 -34.834711,-7.933884 -34.834711,-66.942149 -34.855041,-67.488595 -34.916529,-68.032066 -35.018182,-68.569587 -35.159504,-69.098182 -35.340496,-69.614380 -35.559174,-70.115702 -35.814545,-70.599174 -36.105620,-71.062314 -36.430413,-71.502149 -36.786942,-71.917190 -37.173719,-72.303967 -37.588760,-72.660496 -38.028595,-72.985289 -38.491736,-73.276364 -38.975207,-73.531736 -39.476529,-73.750413 -39.992727,-73.931405 -40.521322,-74.072727 -41.058843,-74.174380 -41.602314,-74.235868 -42.148760,-74.256198 -49.586777,-74.256198 -49.586777,-74.256198 -49.586777,-74.256198 -49.586777,-74.256198 -99.173554,-69.421488 -99.173554,-69.421488 -99.173554,-69.421488 -99.173554,-69.421488"/>
</g>
<g id="MZI">
<use transform="translate(0.000000 0.000000)" xlink:href="#Directinal Coupler"/>
<use transform="translate(37.190083 0.000000)" xlink:href="#Directinal Coupler"/>
</g>
<g id="Grating">
</g>
</defs>
<rect x="-38.429752" y="-534.297521" width="324.793388" height="572.727273" fill="none" stroke="none"/>
<g id="filtering" transform="scale(1 -1)">
<use transform="translate(123.966942 123.966942)" xlink:href="#Device"/>
<use transform="translate(123.966942 371.900826)" xlink:href="#Device"/>
<use transform="translate(0.000000 0.000000)" xlink:href="#Alignment Mark"/>
<use transform="translate(0.000000 247.933884)" xlink:href="#Alignment Mark"/>
<use transform="translate(0.000000 495.867769)" xlink:href="#Alignment Mark"/>
<use transform="translate(247.933884 0.000000)" xlink:href="#Alignment Mark"/>
<use transform="translate(247.933884 247.933884)" xlink:href="#Alignment Mark"/>
<use transform="translate(247.933884 495.867769)" xlink:href="#Alignment Mark"/>
</g>
</svg>