<?xml version="1.0" encoding="UTF-8"?>
<svg xmlns="http://www.w3.org/2000/svg" xmlns:xlink="http://www.w3.org/1999/xlink"
     width="324.793388" height="572.727273" viewBox="-38.429752 -534.297521 324.793388 572.727273">
<defs>
<style type="text/css">
.l0d1 {fill:none;stroke:black;stroke-dasharray:8,8;}
.l1d0 {stroke: #A1CAF1; fill: #A1CAF1; fill-opacity: 0.5;}
.l2d0 {stroke: #BE0032; fill: #BE0032; fill-opacity: 0.5;}
</style>
<g id="Device">
<use transform="translate(-99.173554 -74.380165) rotate(90.000000)" xlink:href="#Grating"/>
<use transform="translate(-99.173554 74.380165) rotate(90.000000)" xlink:href="#Grating"/>
<use transform="translate(99.173554 74.380165) rotate(-90.000000)" xlink:href="#Grating"/>
<use transform="translate(99.173554 -74.380165) rotate(-90.000000)" xlink:href="#Grating"/>
<use transform="translate(0.000000 0.000000)" xlink:href="#Waveguide"/>
<use transform="translate(0.000000 0.000000) scale(1 -1)" xlink:href="#Waveguide"/>
<use transform="translate(0.000000 0.000000) rotate(180.000000)" xlink:href="#Waveguide"/>
<use transform="translate(0.000000 0.000000) rotate(180.000000) scale(1 -1)" xlink:href="#Waveguide"/>
<use transform="translate(-19.834711 0.000000)" xlink:href="#MZI"/>
</g>
<g id="Alignment Mark">
<polygon id="0x55b9a53c1620" class="l1d0" points="12.396694,0.743802 0.743802,0.743802 0.743802,12.396694 -0.743802,12.396694 -0.743802,0.743802 -12.396694,0.743802 -12.396694,-0.743802 -0.743802,-0.743802 -0.743802,-12.396694 0.743802,-12.396694 0.743802,-0.743802 12.396694,-0.743802"/>
</g>
<g id="Waveguide">
<polygon id="0x55b9a562a7a0" class="l1d0" points="-109.090909,-69.421488 -109.090909,-79.338843 -99.173554,-79.338843 -99.173554,-79.338843 -99.173554,-79.338843 -99.173554,-79.338843 -49.586777,-74.504132 -49.586777,-74.504132 -49.586777,-74.504132 -49.586777,-74.504132 -42.148760,-74.504132 -41.609295,-74.484865 -41.072578,-74.427162 -40.541345,-74.331317 -40.018303,-74.197819 -39.506118,-74.027347 -39.007399,-73.820771 -38.524687,-73.579143 -38.060443,-73.303694 -37.617033,-72.995828 -37.196714,-72.657115 -36.801631,-72.289279 -36.433795,-71.894195 -36.095081,-71.473877 -35.787215,-71.030466 -35.511766,-70.566222 -35.270138,-70.083510 -35.063562,-69.584791 -34.893090,-69.072606 -34.759592,-68.549564 -34.663747,-68.018331 -34.606044,-67.481614 -34.586777,-66.942149 -34.586777,-7.933884 -34.566325,-7.387305 -34.505085,-6.843782 -34.403398,-6.306355 -34.261834,-5.778030 -34.081184,-5.261762 -33.862458,-4.760437 -33.606880,-4.276860 -33.315879,-3.813733 -32.991082,-3.373649 -32.634305,-2.959067 -32.247544,-2.572307 -31.832963,-2.215530 -31.392878,-1.890733 -30.929752,-1.599732 -30.446174,-1.344153 -29.944850,-1.125428 -29.428581,-0.944777 -28.900256,-0.803213 -28.362830,-0.701527 -27.819307,-0.640286 -27.272727,-0.619835 -19.834711,-0.619835 -19.834711,-0.371901 -27.272727,-0.371901 -27.812193,-0.391168 -28.348910,-0.448871 -28.880142,-0.544716 -29.403184,-0.678214 -29.915370,-0.848686 -30.414089,-1.055262 -30.896800,-1.296890 -31.361044,-1.572339 -31.804455,-1.880205 -32.224773,-2.218919 -32.619857,-2.586755 -32.987693,-2.981838 -33.326407,-3.402156 -33.634273,-3.845567 -33.909721,-4.309811 -34.151349,-4.792523 -34.357926,-5.291242 -34.528397,-5.803427 -34.661896,-6.326469 -34.757741,-6.857702 -34.815444,-7.394419 -34.834711,-7.933884 -34.834711,-66.942149 -34.855162,-67.488728 -34.916403,-68.032251 -35.018089,-68.569678 -35.159653,-69.098003 -35.340304,-69.614271 -35.559029,-70.115596 -35.814608,-70.599174 -36.105609,-71.062300 -36.430406,-71.502384 -36.787183,-71.916966 -37.173943,-72.303727 -37.588525,-72.660503 -38.028609,-72.985300 -38.491736,-73.276302 -38.975313,-73.531880 -39.476638,-73.750606 -39.992906,-73.931256 -40.521231,-74.072820 -41.058658,-74.174506 -41.602181,-74.235747 -42.148760,-74.256198 -49.586777,-74.256198 -49.586777,-74.256198 -49.586777,-74.256198 -49.586777,-74.256198 -99.173554,-69.421488 -99.173554,-69.421488 -99.173554,-69.421488 -99.173554,-69.421488"/>
</g>
<g id="Directinal Coupler">
<polygon id="0x55b9a562a7a0" class="l1d0" points="0.000000,-0.371901 0.000000,-0.619835 0.012397,-0.619835 0.024793,-0.619835 0.037190,-0.619835 0.056329,-0.619835 0.209962,-0.603075 0.364492,-0.558682 0.644795,-0.435859 0.909946,-0.319674 1.028143,-0.285719 1.147238,-0.272727 1.190083,-0.272727 1.239669,-0.272727 1.289256,-0.272727 1.332101,-0.272727 1.451195,-0.285719 1.569393,-0.319674 1.834544,-0.435859 2.114847,-0.558682 2.269377,-0.603075 2.423010,-0.619835 2.442149,-0.619835 2.454545,-0.619835 2.466942,-0.619835 2.479339,-0.619835 2.479339,-0.371901 2.466942,-0.371901 2.454545,-0.371901 2.442149,-0.371901 2.436494,-0.371901 2.317400,-0.358909 2.199202,-0.324954 1.934051,-0.208769 1.653748,-0.085946 1.499218,-0.041553 1.345585,-0.024793 1.289256,-0.024793 1.239669,-0.024793 1.190083,-0.024793 1.133754,-0.024793 0.980121,-0.041553 0.825591,-0.085946 0.545288,-0.208769 0.280137,-0.324954 0.161939,-0.358909 0.042845,-0.371901 0.037190,-0.371901 0.024793,-0.371901 0.012397,-0.371901"/>
<polygon id="0x55b9a562a7a0" class="l1d0" points="0.000000,0.619835 0.000000,0.371901 0.012397,0.371901 0.024793,0.371901 0.037190,0.371901 0.042845,0.371901 0.161939,0.358909 0.280137,0.324954 0.545288,0.208769 0.825591,0.085946 0.980121,0.041553 1.133754,0.024793 1.190083,0.024793 1.239669,0.024793 1.289256,0.024793 1.345585,0.024793 1.499218,0.041553 1.653748,0.085946 1.934051,0.208769 2.199202,0.324954 2.317400,0.358909 2.436494,0.371901 2.442149,0.371901 2.454545,0.371901 2.466942,0.371901 2.479339,0.371901 2.479339,0.619835 2.466942,0.619835 2.454545,0.619835 2.442149,0.619835 2.423010,0.619835 2.269377,0.603075 2.114847,0.558682 1.834544,0.435859 1.569393,0.319674 1.451195,0.285719 1.332101,0.272727 1.289256,0.272727 1.239669,0.272727 1.190083,0.272727 1.147238,0.272727 1.028143,0.285719 0.909946,0.319674 0.644795,0.435859 0.364492,0.558682 0.209962,0.603075 0.056329,0.619835 0.037190,0.619835 0.024793,0.619835 0.012397,0.619835"/>
</g>
<g id="MZI">
<use transform="translate(0.000000 0.000000)" xlink:href="#Directinal Coupler"/>
<use transform="translate(37.190083 0.000000)" xlink:href="#Directinal Coupler"/>
</g>
<g id="Grating">
<polygon id="0x55b9a53de870" class="l2d0" points="-6.198347,0.000000 6.198347,0.000000 6.198347,0.153719 -6.198347,0.153719"/>
<polygon id="0x55b9a53de8e0" class="l2d0" points="-6.198347,0.307438 6.198347,0.307438 6.198347,0.461157 -6.198347,0.461157"/>
<polygon id="0x55b9a53de950" class="l2d0" points="-6.198347,0.614876 6.198347,0.614876 6.198347,0.768595 -6.198347,0.768595"/>
<polygon id="0x55b9a53de9c0" class="l2d0" points="-6.198347,0.922314 6.198347,0.922314 6.198347,1.076033 -6.198347,1.076033"/>
<polygon id="0x55b9a53dea30" class="l2d0" points="-6.198347,1.229752 6.198347,1.229752 6.198347,1.383471 -6.198347,1.383471"/>
<polygon id="0x55b9a54ee8e0" class="l2d0" points="-6.198347,1.537190 6.198347,1.537190 6.198347,1.690909 -6.198347,1.690909"/>
<polygon id="0x55b9a57005c0" class="l2d0" points="-6.198347,1.844628 6.198347,1.844628 6.198347,1.998347 -6.198347,1.998347"/>
<polygon id="0x55b9a5718b50" class="l2d0" points="-6.198347,2.152066 6.198347,2.152066 6.198347,2.305785 -6.198347,2.305785"/>
<polygon id="0x55b9a5597e50" class="l2d0" points="-6.198347,2.459504 6.198347,2.459504 6.198347,2.613223 -6.198347,2.613223"/>
<polygon id="0x55b9a55910b0" class="l2d0" points="-6.198347,2.766942 6.198347,2.766942 6.198347,2.920661 -6.198347,2.920661"/>
<polygon id="0x55b9a5591120" class="l2d0" points="-6.198347,3.074380 6.198347,3.074380 6.198347,3.228099 -6.198347,3.228099"/>
<polygon id="0x55b9a554b1c0" class="l2d0" points="-6.198347,3.381818 6.198347,3.381818 6.198347,3.535537 -6.198347,3.535537"/>
<polygon id="0x55b9a554b280" class="l2d0" points="-6.198347,3.689256 6.198347,3.689256 6.198347,3.842975 -6.198347,3.842975"/>
<polygon id="0x55b9a5403250" class="l2d0" points="-6.198347,3.996694 6.198347,3.996694 6.198347,4.150413 -6.198347,4.150413"/>
<polygon id="0x55b9a5403310" class="l2d0" points="-6.198347,4.304132 6.198347,4.304132 6.198347,4.457851 -6.198347,4.457851"/>
<polygon id="0x55b9a54e7620" class="l2d0" points="-6.198347,4.611570 6.198347,4.611570 6.198347,4.765289 -6.198347,4.765289"/>
<polygon id="0x55b9a54e76e0" class="l2d0" points="-6.198347,4.919008 6.198347,4.919008 6.198347,5.072727 -6.198347,5.072727"/>
<polygon id="0x55b9a5597f10" class="l2d0" points="-6.198347,5.226446 6.198347,5.226446 6.198347,5.380165 -6.198347,5.380165"/>
<polygon id="0x55b9a559f8b0" class="l2d0" points="-6.198347,5.533884 6.198347,5.533884 6.198347,5.687603 -6.198347,5.687603"/>
<polygon id="0x55b9a559f970" class="l2d0" points="-6.198347,5.841322 6.198347,5.841322 6.198347,5.995041 -6.198347,5.995041"/>
<polygon id="0x55b9a563dc70" class="l2d0" points="-6.198347,6.148760 6.198347,6.148760 6.198347,6.302479 -6.198347,6.302479"/>
<polygon id="0x55b9a563dd30" class="l2d0" points="-6.198347,6.456198 6.198347,6.456198 6.198347,6.609917 -6.198347,6.609917"/>
<polygon id="0x55b9a568d010" class="l2d0" points="-6.198347,6.763636 6.198347,6.763636 6.198347,6.917355 -6.198347,6.917355"/>
<polygon id="0x55b9a568d0d0" class="l2d0" points="-6.198347,7.071074 6.198347,7.071074 6.198347,7.224793 -6.198347,7.224793"/>
<polygon id="0x55b9a54533b0" class="l2d0" points="-6.198347,7.378512 6.198347,7.378512 6.198347,7.532231 -6.198347,7.532231"/>
<polygon id="0x55b9a5453470" class="l2d0" points="-6.198347,7.685950 6.198347,7.685950 6.198347,7.839669 -6.198347,7.839669"/>
<polygon id="0x55b9a55d2050" class="l2d0" points="-6.198347,7.993388 6.198347,7.993388 6.198347,8.147107 -6.198347,8.147107"/>
<polygon id="0x55b9a55d2110" class="l2d0" points="-6.198347,8.300826 6.198347,8.300826 6.198347,8.454545 -6.198347,8.454545"/>
<polygon id="0x55b9a563a580" class="l2d0" points="-6.198347,8.608264 6.198347,8.608264 6.198347,8.761983 -6.198347,8.761983"/>
<polygon id="0x55b9a563a640" class="l2d0" points="-6.198347,8.915702 6.198347,8.915702 6.198347,9.069421 -6.198347,9.069421"/>
<polygon id="0x55b9a5696d70" class="l2d0" points="-6.198347,9.223140 6.198347,9.223140 6.198347,9.376860 -6.198347,9.376860"/>
<polygon id="0x55b9a5696e30" class="l2d0" points="-6.198347,9.530579 6.198347,9.530579 6.198347,9.684298 -6.198347,9.684298"/>
</g>
</defs>
<rect x="-38.429752" y="-534.297521" width="324.793388" height="572.727273" fill="none" stroke="none"/>
<g id="layout" transform="scale(1 -1)">
<use transform="translate(123.966942 123.966942)" xlink:href="#Device"/>
<use transform="translate(123.966942 371.900826)" xlink:href="#Device"/>
<use transform="translate(0.000000 0.000000)" xlink:href="#Alignment Mark"/>
<use transform="translate(0.000000 247.933884)" xlink:href="#Alignment Mark"/>
<use transform="translate(0.000000 495.867769)" xlink:href="#Alignment Mark"/>
<use transform="translate(247.933884 0.000000)" xlink:href="#Alignment Mark"/>
<use transform="translate(247.933884 247.933884)" xlink:href="#Alignment Mark"/>
<use transform="translate(247.933884 495.867769)" xlink:href="#Alignment Mark"/>
</g>
</svg>